<svg xmlns="http://www.w3.org/2000/svg" viewBox="0 0 430 430">
  <defs>
    <style>
      .cls-1 {
        isolation: isolate;
      }

      .cls-2, .cls-3, .cls-4 {
        fill: #f9c9c0;
      }

      .cls-3, .cls-4, .cls-5 {
        mix-blend-mode: multiply;
      }

      .cls-3 {
        opacity: 0.9;
      }

      .cls-4 {
        opacity: 0.3;
      }

      .cls-5 {
        fill: #f28ba8;
        opacity: 0.2;
      }

      .cls-6 {
        fill: #121331;
      }

      .cls-7 {
        fill: #92140c;
      }
    </style>
  </defs>
  <g class="cls-1">
    <g id="Warstwa_1" data-name="Warstwa 1">
      <g>
        <path class="cls-2" d="M358.2,263.89l0-83.7v-.09L228.29,214.74l-12.64,3.37.06,65.86.08,111.2a3.07,3.07,0,0,0,.85-.13l139.45-43.19A3,3,0,0,0,358.2,349Z"/>
        <path class="cls-2" d="M215.79,395.17a2.48,2.48,0,0,1-.71-.1H215L74.84,352.78l-.23-.08-.22-.1a2.75,2.75,0,0,1-.41-.24,2.88,2.88,0,0,1-.27-.22l-.11-.1-.14-.15-.14-.18h0a.21.21,0,0,1-.06-.08h0a1.11,1.11,0,0,1-.17-.3.41.41,0,0,1,0-.09.88.88,0,0,1-.1-.22l0-.07s0,0,0-.06,0,0,0-.06,0,0,0,0a0,0,0,0,1,0,0h0a.06.06,0,0,1,0,0,.55.55,0,0,1,0-.17.68.68,0,0,1,0-.14s0,0,0-.07a2.56,2.56,0,0,1,0-.39l-.41-86.76L71.92,181v-.08L215.65,218.1h0l.06,65.86Z"/>
        <path class="cls-3" d="M215.79,395.17a2.48,2.48,0,0,1-.71-.1H215L74.84,352.78l-.23-.08-.22-.1a2.75,2.75,0,0,1-.41-.24,2.88,2.88,0,0,1-.27-.22l-.11-.1-.14-.15-.14-.18h0a.2.2,0,0,1,0-.08h0a1.11,1.11,0,0,1-.17-.3.41.41,0,0,1,0-.09.88.88,0,0,1-.1-.22l0-.07s0,0,0-.06,0,0,0-.06,0,0,0,0a0,0,0,0,1,0,0h0v-.05a.55.55,0,0,1,0-.17.68.68,0,0,1,0-.14s0,0,0-.07a2.56,2.56,0,0,1,0-.39l-.41-86.76L71.92,181v-.08L215.65,218.1h0l.06,65.86Z"/>
        <path class="cls-2" d="M380.55,132.5l-.41,39.57a.72.72,0,0,1,0,.25,3,3,0,0,1-2.19,2.62l-19.74,5.25L215.65,218.11h0L71.92,181,52.1,175.87A3,3,0,0,1,49.85,173l-.4-40.5a3,3,0,0,1,.85-2L215,173h0L379.7,130.48a3,3,0,0,1,.82,1.69A1.84,1.84,0,0,1,380.55,132.5Z"/>
        <path class="cls-2" d="M379.68,130.47a2.91,2.91,0,0,0-1.33-.79l-162.63-42a3.17,3.17,0,0,0-1.5,0l-162.57,42a3,3,0,0,0-1.35.81L214.94,173h0l164.72-42.52Z"/>
        <path class="cls-4" d="M379.68,130.47,215,173h0L50.3,130.53a3,3,0,0,0-.86,2l.41,40.5a3,3,0,0,0,2.25,2.87L71.92,181h0l143.7,37.11h0l12.64-3.36,129.86-34.55h0l19.71-5.24a3,3,0,0,0,2.22-2.62c0-.08,0-.17,0-.25l.4-39.9a3,3,0,0,0-.83-1.69Z"/>
        <path class="cls-5" d="M215.65,218.1h0L71.92,181,52.1,175.87A3,3,0,0,1,49.85,173l-.4-40.5a3,3,0,0,1,.85-2L215,173Z"/>
        <path class="cls-6" d="M383.2,127.93a4.14,4.14,0,0,0-.58-.53,3.67,3.67,0,0,0-1.24-.56L215.85,84.11a3.46,3.46,0,0,0-1.75,0L48.63,126.89a3.5,3.5,0,0,0-2.71,3.39h0v0l.45,45A3.51,3.51,0,0,0,49,178.69l19.44,5,.79,168.46a3.5,3.5,0,0,0,2.48,3.34l143,43.13a3.5,3.5,0,0,0,.73.15l.34,0,.34,0a3.29,3.29,0,0,0,.77-.16l142.34-44.08a3.5,3.5,0,0,0,2.47-3.34l0-168.33L381,177.73a3.49,3.49,0,0,0,2.59-3.35l.46-44.1h0A3.48,3.48,0,0,0,383.2,127.93ZM215,91.11l151.59,39.14L215,169.38,63.42,130.29ZM76.21,349.54l-.76-164,136.71,35.31.05,63.16.08,106.6Zm278.49-.92L219.29,390.55,219.21,284l-.05-63.17,135.53-36.06Zm21.95-177-18.63,5a3.76,3.76,0,0,0-.74.1L215.64,214.49l-142.84-37a4.61,4.61,0,0,0-.5-.07l-18.95-4.89L53,134.83,214.1,176.39a3.7,3.7,0,0,0,1.75,0L377,134.78Z"/>
        <path class="cls-7" d="M326.06,61.3c-.14-15.14-12.75-27.66-30-29.78-24.92-3.05-59.36,15.37-79.08,75.37-20-60.15-54.93-78.51-80.21-75.34-17.65,2.2-30,14.47-30.15,29.82-.14,21.92,25.65,48.85,97.36,61L122.54,149a3.5,3.5,0,0,0-2.42,3.31L120,194.09v.5a3.5,3.5,0,0,0,2.54,3.37l10.83,3.1L133,371.38a3.5,3.5,0,0,0,3.5,3.5h0a3.5,3.5,0,0,0,3.5-3.49l.38-173a3.49,3.49,0,0,0-2.53-3.37L127,192l.11-37.13,87.73-28.64.23.08a3.37,3.37,0,0,0,.88.11l.27,0,84.58,27.53,2.91,1-.11,35.84-10.95,3.51a3.51,3.51,0,0,0-2.44,3.34L290.7,371a3.51,3.51,0,0,0,3.5,3.49h0A3.48,3.48,0,0,0,297.7,371l-.47-170.92,10.94-3.5a3.49,3.49,0,0,0,2.43-3.33l.12-40.95A3.47,3.47,0,0,0,308.3,149l-80.58-26.23C300.28,110.75,326.25,83.47,326.06,61.3Zm-212.43.11c.08-11.73,10-21.16,24-22.92a38.67,38.67,0,0,1,4.74-.29c23.13,0,53.29,20.36,70.33,78.48C139.48,105.84,113.51,80.27,113.63,61.41Zm107.66,55.26c16.82-58.11,46.63-78.47,69.42-78.47a36.92,36.92,0,0,1,4.51.27c13.93,1.71,23.73,11.12,23.84,22.89C319.22,80.23,293.62,105.83,221.29,116.67Z"/>
      </g>
    </g>
  </g>
</svg>
