<svg xmlns="http://www.w3.org/2000/svg" viewBox="0 0 430 430">
  <defs>
    <style>
      .cls-1 {
        isolation: isolate;
      }

      .cls-2 {
        fill: #fd6188;
      }

      .cls-3 {
        mix-blend-mode: multiply;
        opacity: 0.5;
      }
    </style>
  </defs>
  <g class="cls-1">
    <g id="Warstwa_1" data-name="Warstwa 1">
      <g>
        <path class="cls-2" d="M363,179.73l-108.48,0h0a3.77,3.77,0,0,1-3.56-2.55L216.56,72A2.69,2.69,0,0,0,214,70.09h0A2.71,2.71,0,0,0,211.33,72l-33.88,104.5a3.78,3.78,0,0,1-3.57,2.56l-106.95,0a2.76,2.76,0,0,0-1.61,5l87,62.71a3.74,3.74,0,0,1,1.38,4.2L120.7,354.59a2.76,2.76,0,0,0,4.24,3.09l86.69-67a3.82,3.82,0,0,1,2.21-.71,3.76,3.76,0,0,1,2.18.69l87.29,68.73a2.76,2.76,0,0,0,4.19-3.17L274.83,252.06a3.77,3.77,0,0,1,1.37-4.28l88.4-63a2.76,2.76,0,0,0-1.6-5Z"/>
        <g class="cls-3">
          <g>
            <path class="cls-2" d="M65.39,184.06l87,62.7a3.73,3.73,0,0,1,1.45,2.13,3.78,3.78,0,0,1-.07,2.08L120.77,354.59a2.69,2.69,0,0,0,1,3.08L215,226.51,64.37,181A2.7,2.7,0,0,0,65.39,184.06Z"/>
            <path class="cls-2" d="M212.53,70.51A2.72,2.72,0,0,0,211.4,72l-33.88,104.5a3.74,3.74,0,0,1-1.58,2l39.09,48L214,70.09A2.88,2.88,0,0,0,212.53,70.51Z"/>
            <path class="cls-2" d="M216.09,290.66l87.29,68.73a2.7,2.7,0,0,0,3.24-.06L215,226.51,214,290A3.65,3.65,0,0,1,216.09,290.66Z"/>
            <path class="cls-2" d="M365.7,181.65,215,226.51l59.89,23.08a3.76,3.76,0,0,1,1.35-1.81l88.4-63A2.7,2.7,0,0,0,365.7,181.65Z"/>
          </g>
        </g>
      </g>
    </g>
  </g>
</svg>
